# xmcd
#
# Track frame offsets:
#	150
#	13292
#	27027
#	39581
#	49434
#	59909
#	70675
#	81518
#	90953
#	101550
#	111413
#	121913
#	131555
#	143071
#
# Disc length: 2033 seconds
#
# Revision: 0
# Processed by: cddbd v1.5.2PL0 Copyright (c) Steve Scherf et al.
# Submitted via: EasyCDDAExtractor 15.3.0.1
#
DISCID=c707ef0e
DTITLE=Porter Wagoner and Dolly Parton - Playlist: The Very Best Of Porter Wagon
DTITLE=er and Dolly Parton
DYEAR=1900
DGENRE=
TTITLE0=Right Combination
TTITLE1=Daddy Was An Old Time Preacher Man
TTITLE2=Jeannie's Afraid Of The Dark
TTITLE3=I Don't Believe You've Met My Baby
TTITLE4=Run That By Me One More Time
TTITLE5=Just Someone I Used To Know
TTITLE6=I Know You're Married (But I Love You Still)
TTITLE7=Pain Of Loving You
TTITLE8=Put It Off Until Tomorrow
TTITLE9=Making Plans
TTITLE10=If You Go I'll Follow You
TTITLE11=Two Sides To Every Story
TTITLE12=If Teardrops Were Pennies
TTITLE13=Tangled Vines
EXTD=
EXTT0=
EXTT1=
EXTT2=
EXTT3=
EXTT4=
EXTT5=
EXTT6=
EXTT7=
EXTT8=
EXTT9=
EXTT10=
EXTT11=
EXTT12=
EXTT13=
PLAYORDER=
